<svg xmlns="http://www.w3.org/2000/svg" xmlns:xlink="http://www.w3.org/1999/xlink" viewBox="0 0 600 600"><defs><style>.cls-1{fill:none;}.cls-2{isolation:isolate;}.cls-3{fill:#283486;}.cls-4{fill:#00aad7;}.cls-5{mix-blend-mode:multiply;}.cls-6{clip-path:url(#clip-path);}.cls-7{fill:url(#linear-gradient);}.cls-8{fill:#2d2e7f;}</style><clipPath id="clip-path"><path class="cls-1" d="M159.6,286.65c-20.76,70.64,62,125.15,107.63,116.47L243,345.65c-37.46-8-63.89-34.25-63.89-70.93,0-15.63,3.76-20.73,3.76-20.73-15.86,5.56-23.24,32.66-23.24,32.66"/></clipPath><linearGradient id="linear-gradient" x1="-118.1" y1="594.18" x2="-114.96" y2="594.18" gradientTransform="matrix(46.98, 0, 0, -46.98, 5734.68, 28246.28)" gradientUnits="userSpaceOnUse"><stop offset="0" stop-color="#fff"/><stop offset="0.39" stop-color="#b6b5b5"/><stop offset="1" stop-color="#1d1e1c"/></linearGradient></defs><title>compassArtboard 1</title><g class="cls-2"><g id="Layer_1" data-name="Layer 1"><path class="cls-3" d="M262.77,490v-75.1c-1.34,0-2.69.1-4,.1a114.87,114.87,0,0,1-44.66-9L255,513.44l0,0a4.14,4.14,0,0,0,.54,1,.61.61,0,0,1,.07.1,4.45,4.45,0,0,0,.78.72l.15.11a3.88,3.88,0,0,0,.94.45l.18,0a2.42,2.42,0,0,0,.36.1,3.51,3.51,0,0,0,.72.07h0a3.51,3.51,0,0,0,.72-.07,2.42,2.42,0,0,0,.36-.1l.18,0a3.88,3.88,0,0,0,.94-.45l.15-.11a4.45,4.45,0,0,0,.78-.72.61.61,0,0,1,.07-.1,4.14,4.14,0,0,0,.54-1l0,0,40.88-107.39q-4.92,2.06-10.05,3.68Z"/><path class="cls-3" d="M153.38,201.13,174,221.78a115.84,115.84,0,0,1,22.08-18.62l-53.72-24.1h0l0,0a2.86,2.86,0,0,0-.42-.1,4.19,4.19,0,0,0-.91-.23,3.68,3.68,0,0,0-.58,0,3.62,3.62,0,0,0-.8.08,4.22,4.22,0,0,0-.72.33,3.93,3.93,0,0,0-.52.23v0a4.17,4.17,0,0,0-.47.47,3.79,3.79,0,0,0-.53.53l0,0a2.87,2.87,0,0,0-.18.4,4.06,4.06,0,0,0-.39.85,3.71,3.71,0,0,0-.07.67,4,4,0,0,0,0,.7,4.41,4.41,0,0,0,.21.87,3.9,3.9,0,0,0,.12.46l24.25,54.07q2.53-4,5.36-7.81Z"/><path class="cls-3" d="M159.09,406.11l21.59-21.58A115.56,115.56,0,0,1,161.76,362L137,417.1h0l0,0c-.06.15-.06.3-.11.45a3.91,3.91,0,0,0-.22.88,4,4,0,0,0,0,.7,3.81,3.81,0,0,0,.07.67,4.16,4.16,0,0,0,.38.83,3.17,3.17,0,0,0,.19.42l0,0,.07.08a3.84,3.84,0,0,0,.84.82,1.09,1.09,0,0,0,.1.11c.06,0,.12.05.17.08a3.61,3.61,0,0,0,.74.36l.3.12a4.86,4.86,0,0,0,1.07.16h.06a3.22,3.22,0,0,0,.76-.08,2.17,2.17,0,0,0,.24-.07,3.54,3.54,0,0,0,.55-.18l.06,0,55.48-24.88c-2.69-1.68-5.32-3.45-7.85-5.34Z"/><path class="cls-3" d="M69.47,304.81h74.19c-.07-1.65-.13-3.31-.13-5a114.8,114.8,0,0,1,8.39-43.14L46.1,297h0l0,0-.21.1a2.49,2.49,0,0,0-.4.2,1.73,1.73,0,0,0-.28.19,3.06,3.06,0,0,0-.29.21l-.25.25a2.61,2.61,0,0,0-.23.24,2.43,2.43,0,0,0-.2.28c-.07.1-.14.19-.2.29a3.36,3.36,0,0,0-.16.33c0,.1-.09.19-.13.3a2.3,2.3,0,0,0-.12.43c0,.08,0,.15-.07.22v0c0,.15,0,.31,0,.46a1.64,1.64,0,0,0,0,.51c0,.15,0,.31,0,.46v0c0,.07.05.14.07.22a2.3,2.3,0,0,0,.12.43,2.71,2.71,0,0,0,.13.3c.05.11.1.22.16.33s.13.19.19.28a3.06,3.06,0,0,0,.21.29,2.61,2.61,0,0,0,.23.24,3,3,0,0,0,.25.25l.3.22c.09.06.17.13.26.18a4.66,4.66,0,0,0,.45.22l.17.08h.05l106.72,40.62q-2.12-4.92-3.76-10.08Z"/><path class="cls-3" d="M254.69,111.5v73.24c1.34-.05,2.68-.1,4-.1a114.67,114.67,0,0,1,43.82,8.65l-40-105.16h0v0c0-.07-.08-.14-.11-.21s-.12-.27-.19-.4-.14-.19-.21-.29a2.61,2.61,0,0,0-.19-.27,4,4,0,0,0-.29-.29l-.2-.19a3,3,0,0,0-.36-.26l-.2-.14a4.23,4.23,0,0,0-.48-.23.84.84,0,0,0-.14-.06,4.08,4.08,0,0,0-1.24-.25h-.33a4.09,4.09,0,0,0-1.26.25l-.06,0a3.2,3.2,0,0,0-.56.27l-.12.08c-.15.1-.3.2-.44.31l-.14.14a3.85,3.85,0,0,0-.35.35l-.15.21a2.71,2.71,0,0,0-.24.35,11.93,11.93,0,0,1-.3.6v0h0l-40,105.16c3.27-1.35,6.6-2.56,10-3.6Z"/><path class="cls-4" d="M338.13,230.28c-16-16.37-40.7-26.86-68.39-26.86-48.29,0-87.44,31.92-87.44,71.3,0,33.08,27.62,60.89,65.08,68.95l26.81,63.38H258.06a106.51,106.51,0,1,1,80.29-176.51l-.22-.26"/><g class="cls-5"><g class="cls-6"><rect class="cls-7" x="117.92" y="260.9" width="170.23" height="144" transform="translate(-149.06 500.44) rotate(-84.07)"/></g></g><path class="cls-8" d="M263.39,278.71c0,1,0,1.84-.05,2.48a13.06,13.06,0,0,1-.27,1.95H225.51q.54,9.23,4.64,14.54A13.31,13.31,0,0,0,241.27,303a21.83,21.83,0,0,0,8.36-1.41,42,42,0,0,0,7.29-4l3.78,5.82q-2.59,1.59-4.86,2.82a30,30,0,0,1-4.64,2,31.66,31.66,0,0,1-5,1.22,36.58,36.58,0,0,1-5.83.42,22.91,22.91,0,0,1-8-1.51,19.27,19.27,0,0,1-7.42-5,27.57,27.57,0,0,1-5.51-9.22,39.68,39.68,0,0,1-2.18-14,39,39,0,0,1,1.77-12.2,28.1,28.1,0,0,1,4.9-9.18,21.69,21.69,0,0,1,7.38-5.82,21.1,21.1,0,0,1,9.31-2,22.17,22.17,0,0,1,9.75,2,20,20,0,0,1,7.16,5.77,25.45,25.45,0,0,1,4.36,8.85A40.8,40.8,0,0,1,263.39,278.71ZM256,276.55q-.54-8.35-4.2-13.57t-11.08-5.21a13.15,13.15,0,0,0-10.38,4.62q-4,4.61-4.78,14.16Z"/><path class="cls-8" d="M291.9,237.7a7,7,0,0,0-4.16,1.19q-1.67,1.19-1.67,4.74v8.42h11.12V259H286.07v49.76h-8.2V259H270.1v-6.91h7.77v-7.77q0-7.54,3.77-10.74a14.55,14.55,0,0,1,9.72-3.18,29.75,29.75,0,0,1,4.05.22,15.12,15.12,0,0,1,3.07.75V239A15.61,15.61,0,0,0,291.9,237.7Z"/><path class="cls-8" d="M341.13,263.49a26.09,26.09,0,0,0-6.2-4.26,17.19,17.19,0,0,0-7.4-1.46,13.33,13.33,0,0,0-6.2,1.47,14.08,14.08,0,0,0-5,4.34,22,22,0,0,0-3.29,7,34.21,34.21,0,0,0-1.19,9.44q0,10.51,4.21,16.75A13.42,13.42,0,0,0,327.86,303a14.85,14.85,0,0,0,7.12-1.62,27,27,0,0,0,5.94-4.43l4.86,5.18a28.11,28.11,0,0,1-7.88,5.7,23.83,23.83,0,0,1-10.37,2.07,23.17,23.17,0,0,1-8.95-1.78,20.63,20.63,0,0,1-7.61-5.45,27.56,27.56,0,0,1-5.29-9.12,42.91,42.91,0,0,1,.16-26.39,27.43,27.43,0,0,1,5.61-9.22,21.91,21.91,0,0,1,7.83-5.35,23.74,23.74,0,0,1,8.79-1.72,25.86,25.86,0,0,1,10.2,1.86,29.46,29.46,0,0,1,7.72,4.72Z"/><path class="cls-4" d="M310.23,364.48a15.32,15.32,0,0,1-3.39,3.33,17.08,17.08,0,0,1-4.72,2.35,20.21,20.21,0,0,1-6.32.9,18.73,18.73,0,0,1-8-1.6,16.5,16.5,0,0,1-5.79-4.37,18.67,18.67,0,0,1-3.54-6.61,28.13,28.13,0,0,1-1.19-8.35,26.58,26.58,0,0,1,1.36-8.76,19.06,19.06,0,0,1,3.83-6.58,16.8,16.8,0,0,1,5.86-4.14,18.82,18.82,0,0,1,7.5-1.45,23.23,23.23,0,0,1,6.41.78,13.48,13.48,0,0,1,4.64,2.32,13.87,13.87,0,0,1,3.27,3.77,29.81,29.81,0,0,1,2.38,5.07l-10.2,4c-.35-.92-.72-1.77-1.1-2.55a8,8,0,0,0-1.34-1.94,5.43,5.43,0,0,0-1.74-1.22,5.84,5.84,0,0,0-2.37-.43,5.37,5.37,0,0,0-3,.84,6.6,6.6,0,0,0-2.11,2.32,10.83,10.83,0,0,0-1.22,3.51,24.56,24.56,0,0,0-.38,4.46,23.88,23.88,0,0,0,.38,4.35,11.21,11.21,0,0,0,1.22,3.53,6.8,6.8,0,0,0,2.11,2.38,5.42,5.42,0,0,0,3.13.87,6.78,6.78,0,0,0,2.32-.35,5.34,5.34,0,0,0,1.8-1.07,10.1,10.1,0,0,0,1.56-1.8,26.16,26.16,0,0,0,1.57-2.52l9.51,5.05A29.21,29.21,0,0,1,310.23,364.48Z"/><path class="cls-4" d="M353.55,350.07a26.63,26.63,0,0,1-1.39,9,18.69,18.69,0,0,1-3.88,6.58,16.5,16.5,0,0,1-6,4.06,20.18,20.18,0,0,1-7.59,1.39,20.63,20.63,0,0,1-7.57-1.36,16.29,16.29,0,0,1-5.94-4,18,18,0,0,1-3.85-6.55,27.16,27.16,0,0,1-1.37-9,26.84,26.84,0,0,1,1.39-9,18.71,18.71,0,0,1,3.89-6.58,16.38,16.38,0,0,1,6-4.06,21.58,21.58,0,0,1,15.16,0,16.13,16.13,0,0,1,5.92,4,18.71,18.71,0,0,1,3.85,6.55A26.63,26.63,0,0,1,353.55,350.07Zm-11.65.12c0-3.67-.63-6.46-1.89-8.35a6,6,0,0,0-5.3-2.84,5.92,5.92,0,0,0-5.25,2.78q-1.81,2.79-1.82,8.29c0,3.67.62,6.46,1.88,8.35a6,6,0,0,0,5.31,2.84,5.89,5.89,0,0,0,5.24-2.78Q341.9,355.69,341.9,350.19Z"/><path class="cls-4" d="M389.75,370.42v-9.68c0-2,0-3.91.06-5.71s.09-3.49.17-5.07l-1,2.55c-.39.92-.79,1.86-1.22,2.81s-.84,1.87-1.27,2.78l-1.15,2.47L380,371.81l-5.32-11.24-1.16-2.47-1.27-2.78c-.42-.95-.83-1.89-1.21-2.81s-.73-1.78-1-2.55c.07,1.58.13,3.27.17,5.07s.06,3.7.06,5.71v9.68H359.6V329.84h10.33l5,10.84c.58,1.31,1.15,2.58,1.71,3.8s1.06,2.35,1.51,3.42.83,2,1.16,2.87.57,1.56.73,2.14a49.89,49.89,0,0,1,1.85-4.9c.89-2.1,2-4.55,3.26-7.33l5-10.84h10.22v40.58Z"/><path class="cls-4" d="M441.44,343.29a15.6,15.6,0,0,1-1.22,6.55,10.88,10.88,0,0,1-3.43,4.32,14.18,14.18,0,0,1-5.26,2.38,29.19,29.19,0,0,1-6.71.72h-5.64v13.16h-11V329.84h17.45a27.07,27.07,0,0,1,6.46.72,13.67,13.67,0,0,1,5,2.32,10.41,10.41,0,0,1,3.21,4.18A15.35,15.35,0,0,1,441.44,343.29Zm-11.18.17a4.62,4.62,0,0,0-1.11-3.24c-.74-.82-2-1.22-3.85-1.22h-6.12v9.1h5.95a5.53,5.53,0,0,0,4-1.16A4.69,4.69,0,0,0,430.26,343.46Z"/><path class="cls-4" d="M469.34,370.42l-2.2-7.13H455l-2.2,7.13H440.7l14.73-40.58h11.36l14.73,40.58Zm-5.68-18.72c-.35-1.32-.66-2.46-.93-3.43s-.51-1.83-.72-2.6-.4-1.48-.55-2.12-.29-1.3-.41-2c-.11.7-.25,1.37-.4,2s-.34,1.37-.55,2.14l-.73,2.61c-.27,1-.58,2.09-.93,3.37l-.75,2.66h6.72Z"/><path class="cls-4" d="M518.58,358a13.22,13.22,0,0,1-1.25,6,10.78,10.78,0,0,1-3.48,4.06,15.91,15.91,0,0,1-5.3,2.32,28.36,28.36,0,0,1-6.73.75,32.3,32.3,0,0,1-17.1-4.93l5.45-8.81a21.32,21.32,0,0,0,2.58,1.48,30.07,30.07,0,0,0,3.07,1.3A23.54,23.54,0,0,0,499,361a14.59,14.59,0,0,0,3,.35,10.29,10.29,0,0,0,4.15-.58,2.1,2.1,0,0,0,1.13-2,1.83,1.83,0,0,0-.32-1,3.28,3.28,0,0,0-1.1-.89,12.33,12.33,0,0,0-2.12-.87q-1.34-.43-3.36-.9a58.61,58.61,0,0,1-6.38-1.86,15.12,15.12,0,0,1-4.52-2.46,9.41,9.41,0,0,1-2.7-3.57,13,13,0,0,1-.89-5.16,11.87,11.87,0,0,1,1.13-5.21,11.4,11.4,0,0,1,3.21-4.06,15.27,15.27,0,0,1,5.05-2.61,22,22,0,0,1,6.61-.93,30.26,30.26,0,0,1,9.07,1.22,25.91,25.91,0,0,1,7.1,3.48l-5.45,8.81a23.93,23.93,0,0,0-5.45-2.84,17,17,0,0,0-5.85-1c-1.7,0-2.82.23-3.37.7a2.25,2.25,0,0,0-.81,1.79,1.7,1.7,0,0,0,.32,1,2.9,2.9,0,0,0,1.07.81,14.1,14.1,0,0,0,2,.76c.85.25,1.94.53,3.25.84a50.16,50.16,0,0,1,6.61,2,16.8,16.8,0,0,1,4.58,2.61,9.38,9.38,0,0,1,2.67,3.6A12.74,12.74,0,0,1,518.58,358Z"/><path class="cls-4" d="M556,358a13.22,13.22,0,0,1-1.25,6,10.78,10.78,0,0,1-3.48,4.06,15.73,15.73,0,0,1-5.3,2.32,28.36,28.36,0,0,1-6.73.75,31,31,0,0,1-9.42-1.42,31.42,31.42,0,0,1-7.68-3.51l5.45-8.81a22.12,22.12,0,0,0,2.58,1.48,31.06,31.06,0,0,0,3.07,1.3,24,24,0,0,0,3.22.93,14.6,14.6,0,0,0,3,.35,10.2,10.2,0,0,0,4.14-.58,2.09,2.09,0,0,0,1.13-2,1.76,1.76,0,0,0-.32-1,3.28,3.28,0,0,0-1.1-.89,12.53,12.53,0,0,0-2.11-.87c-.89-.29-2-.59-3.37-.9a58.38,58.38,0,0,1-6.37-1.86,15.18,15.18,0,0,1-4.53-2.46,9.39,9.39,0,0,1-2.69-3.57,13,13,0,0,1-.9-5.16,12,12,0,0,1,1.13-5.21,11.43,11.43,0,0,1,3.22-4.06,15.22,15.22,0,0,1,5-2.61,22,22,0,0,1,6.61-.93,30.26,30.26,0,0,1,9.07,1.22,26.11,26.11,0,0,1,7.11,3.48l-5.45,8.81a24.34,24.34,0,0,0-5.45-2.84,17,17,0,0,0-5.86-1c-1.7,0-2.82.23-3.36.7a2.25,2.25,0,0,0-.81,1.79,1.63,1.63,0,0,0,.32,1,2.9,2.9,0,0,0,1.07.81,13.66,13.66,0,0,0,2,.76q1.28.38,3.24.84a49.69,49.69,0,0,1,6.61,2,16.8,16.8,0,0,1,4.58,2.61,9.38,9.38,0,0,1,2.67,3.6A12.74,12.74,0,0,1,556,358Z"/></g></g></svg>